# xmcd
#
# Track frame offsets: 
#        178
#        12873
#        22030
#        32355
#        43258
#        54640
#        68190
#        75490
#        87365
#        102955
#        114823
#        125743
#        139118
#        150308
#        160678
#        169030
#        180670
#        190553
#        201123
#        215835
#        225975
#
# Disc length: 3205 seconds
#
# Revision: 0
# Processed by: cddbd v1.5.2PL0 Copyright (c) Steve Scherf et al.
# Submitted via: ExactAudioCopy v0.99pb5
#
DISCID=0a0c8315
DTITLE=Геннадий Перевалов - Избранное
DYEAR=1994
DGENRE=Chanson
TTITLE0=Прогулка по Екатеринбургу
TTITLE1=Снег
TTITLE2=Железнодорожная песня
TTITLE3=Фигурные конечки
TTITLE4=Мистер Блюз
TTITLE5=Ветер перемен
TTITLE6=На Арбате
TTITLE7=Море, море...
TTITLE8=Памяти Э.Хэмингуэя
TTITLE9=Горы
TTITLE10=Узелок на память
TTITLE11=Памяти Л.Утесова
TTITLE12=Песня о военном музыканте
TTITLE13=Бесплатный блюз
TTITLE14=Бродяги мы с тобой...
TTITLE15=Пока рука ещё сильна...
TTITLE16=Когда-нибудь настанет время...
TTITLE17=Крымские этюды
TTITLE18=Не уходи...
TTITLE19=За окном промокший сквер
TTITLE20=Завтра
EXTD=
EXTT0=
EXTT1=
EXTT2=
EXTT3=
EXTT4=
EXTT5=
EXTT6=
EXTT7=
EXTT8=
EXTT9=
EXTT10=
EXTT11=
EXTT12=
EXTT13=
EXTT14=
EXTT15=
EXTT16=
EXTT17=
EXTT18=
EXTT19=
EXTT20=
PLAYORDER=
